HIERARCHY
ROOT hips
{
  OFFSET 0 10.6860622 2.3727825e-15
  CHANNELS 6 Xposition Yposition Zposition Yrotation Xrotation Zrotation
  JOINT leftUpperLeg
  {
    OFFSET 0.6642549969 -0.9402397400000004 0
    CHANNELS 3 Yrotation Xrotation Zrotation
    JOINT leftLowerLeg
    {
      OFFSET 0 -3.997221335632195 0
      CHANNELS 3 Yrotation Xrotation Zrotation
      JOINT leftFoot
      {
        OFFSET -0.13777839790000004 -4.6145792000000005 -0.22186036399999998
        CHANNELS 3 Yrotation Xrotation Zrotation
        JOINT leftToes
        {
          OFFSET -0.03777410834999995 -0.9130806927000008 0.85230013
          CHANNELS 3 Yrotation Xrotation Zrotation
          End Site
          {
            OFFSET -0.03777410834999995 -0.9130806927000008 0.85230013
          }
        }
      }
    }
  }
  JOINT rightUpperLeg
  {
    OFFSET -0.6642778626 -0.9402397400000004 0
    CHANNELS 3 Yrotation Xrotation Zrotation
    JOINT rightLowerLeg
    {
      OFFSET 0 -3.997221452859387 0
      CHANNELS 3 Yrotation Xrotation Zrotation
      JOINT rightFoot
      {
        OFFSET 0.1377926176 -4.6145792000000005 -0.22185782299999995
        CHANNELS 3 Yrotation Xrotation Zrotation
        JOINT rightToes
        {
          OFFSET 0.037780746850000047 -0.9130806927000008 0.85230167
          CHANNELS 3 Yrotation Xrotation Zrotation
          End Site
          {
            OFFSET 0.037780746850000047 -0.9130806927000008 0.85230167
          }
        }
      }
    }
  }
  JOINT spine
  {
    OFFSET 0 0.13988381660000015 0
    CHANNELS 3 Yrotation Xrotation Zrotation
    JOINT chest
    {
      OFFSET 0 0.6191039003973773 0
      CHANNELS 3 Yrotation Xrotation Zrotation
      JOINT upperChest
      {
        OFFSET 0 0.9855186130586943 0
        CHANNELS 3 Yrotation Xrotation Zrotation
        JOINT leftShoulder
        {
          OFFSET 0.1807663869 1.5087829790000005 0
          CHANNELS 3 Yrotation Xrotation Zrotation
          JOINT leftUpperArm
          {
            OFFSET 0.5985063006419806 0 0
            CHANNELS 3 Yrotation Xrotation Zrotation
            JOINT leftLowerArm
            {
              OFFSET 2.2993332369501065 0 0
              CHANNELS 3 Yrotation Xrotation Zrotation
              JOINT leftHand
              {
                OFFSET 2.395047042602395 0 0
                CHANNELS 3 Yrotation Xrotation Zrotation
                JOINT leftIndexProximal
                {
                  OFFSET 0.5766295810000004 0.04556643899499946 0.17265095988184
                  CHANNELS 3 Yrotation Xrotation Zrotation
                  JOINT leftIndexIntermediate
                  {
                    OFFSET 0.2957229000000008 -0.019352197700001517 -0.007932640616999987
                    CHANNELS 3 Yrotation Xrotation Zrotation
                    JOINT leftIndexDistal
                    {
                      OFFSET 0.19008243099999922 -0.012484908149998475 -0.002786250786000012
                      CHANNELS 3 Yrotation Xrotation Zrotation
                      End Site
                      {
                        OFFSET 0.19008243099999922 -0.012484908149998475 -0.002786250786000012
                      }
                    }
                  }
                }
                JOINT leftMiddleProximal
                {
                  OFFSET 0.5834975091000001 0.0524350405149987 0.02204081888183999
                  CHANNELS 3 Yrotation Xrotation Zrotation
                  JOINT leftMiddleIntermediate
                  {
                    OFFSET 0.33880573540000003 -0.019871473270000717 -0.00000971183179999946
                    CHANNELS 3 Yrotation Xrotation Zrotation
                    JOINT leftMiddleDistal
                    {
                      OFFSET 0.20676022730000088 -0.012221336379999448 0.0001471936708000235
                      CHANNELS 3 Yrotation Xrotation Zrotation
                      End Site
                      {
                        OFFSET 0.20676022730000088 -0.012221336379999448 0.0001471936708000235
                      }
                    }
                  }
                }
                JOINT leftLittleProximal
                {
                  OFFSET 0.5344154683999995 -0.012880921405001189 -0.24414037221816004
                  CHANNELS 3 Yrotation Xrotation Zrotation
                  JOINT leftLittleIntermediate
                  {
                    OFFSET 0.21758961730000093 -0.011650919939999227 0.011893592810000034
                    CHANNELS 3 Yrotation Xrotation Zrotation
                    JOINT leftLittleDistal
                    {
                      OFFSET 0.1475273964999999 -0.008152365682999818 0.006001092492999946
                      CHANNELS 3 Yrotation Xrotation Zrotation
                      End Site
                      {
                        OFFSET 0.1475273964999999 -0.008152365682999818 0.006001092492999946
                      }
                    }
                  }
                }
                JOINT leftRingProximal
                {
                  OFFSET 0.5799399463000003 0.026911854694997794 -0.12150566991816003
                  CHANNELS 3 Yrotation Xrotation Zrotation
                  JOINT leftRingIntermediate
                  {
                    OFFSET 0.26167887460000006 -0.013480186499999602 0.010996293000000053
                    CHANNELS 3 Yrotation Xrotation Zrotation
                    JOINT leftRingDistal
                    {
                      OFFSET 0.17667108799999987 -0.008990287899999228 0.0055541023999999065
                      CHANNELS 3 Yrotation Xrotation Zrotation
                      End Site
                      {
                        OFFSET 0.17667108799999987 -0.008990287899999228 0.0055541023999999065
                      }
                    }
                  }
                }
                JOINT leftThumbProximal
                {
                  OFFSET 0.11018806699999972 -0.09448718900500053 0.17047963138184
                  CHANNELS 3 Yrotation Xrotation Zrotation
                  JOINT leftThumbIntermediate
                  {
                    OFFSET 0.31062601459999983 -0.08126270900000132 0.15443142000000007
                    CHANNELS 3 Yrotation Xrotation Zrotation
                    JOINT leftThumbDistal
                    {
                      OFFSET 0.21627175790000086 -0.08833193599999878 0.018771167799999988
                      CHANNELS 3 Yrotation Xrotation Zrotation
                      End Site
                      {
                        OFFSET 0.21627175790000086 -0.08833193599999878 0.018771167799999988
                      }
                    }
                  }
                }
              }
            }
          }
        }
        JOINT neck
        {
          OFFSET 0 1.5463305265074576 0
          CHANNELS 3 Yrotation Xrotation Zrotation
          JOINT head
          {
            OFFSET 0 0.8456443600000344 0
            CHANNELS 3 Yrotation Xrotation Zrotation
            JOINT leftEye
            {
              OFFSET 0.30408573140000006 0.5104519199999995 0.1276382305
              CHANNELS 3 Yrotation Xrotation Zrotation
              End Site
              {
                OFFSET 0.30408573140000006 0.5104519199999995 0.1276382305
              }
            }
            JOINT rightEye
            {
              OFFSET -0.30409491089999996 0.5104519199999995 0.1276379445
              CHANNELS 3 Yrotation Xrotation Zrotation
              End Site
              {
                OFFSET -0.30409491089999996 0.5104519199999995 0.1276379445
              }
            }
            JOINT jaw
            {
              OFFSET -3.155239131000001e-7 -0.11984121820000082 0.60178107
              CHANNELS 3 Yrotation Xrotation Zrotation
              End Site
              {
                OFFSET -3.155239131000001e-7 -0.11984121820000082 0.60178107
              }
            }
          }
        }
        JOINT rightShoulder
        {
          OFFSET -0.1807303465 1.5087829790000005 0
          CHANNELS 3 Yrotation Xrotation Zrotation
          JOINT rightUpperArm
          {
            OFFSET -0.5985063796536958 0 0
            CHANNELS 3 Yrotation Xrotation Zrotation
            JOINT rightLowerArm
            {
              OFFSET -2.2993322059002854 0 0
              CHANNELS 3 Yrotation Xrotation Zrotation
              JOINT rightHand
              {
                OFFSET -2.395045314457259 0 0
                CHANNELS 3 Yrotation Xrotation Zrotation
                JOINT rightIndexProximal
                {
                  OFFSET -0.5764487688300002 0.0441371204405987 0.17361932004999997
                  CHANNELS 3 Yrotation Xrotation Zrotation
                  JOINT rightIndexIntermediate
                  {
                    OFFSET -0.29573011380000047 -0.01934826376999843 -0.007698921482999974
                    CHANNELS 3 Yrotation Xrotation Zrotation
                    JOINT rightIndexDistal
                    {
                      OFFSET -0.19008373999999884 -0.012503266380000655 -0.0026365778999999897
                      CHANNELS 3 Yrotation Xrotation Zrotation
                      End Site
                      {
                        OFFSET -0.19008373999999884 -0.012503266380000655 -0.0026365778999999897
                      }
                    }
                  }
                }
                JOINT rightMiddleProximal
                {
                  OFFSET -0.5834852037300005 0.05211639405060153 0.02307162440000001
                  CHANNELS 3 Yrotation Xrotation Zrotation
                  JOINT rightMiddleIntermediate
                  {
                    OFFSET -0.33880114510000003 -0.019952774050000954 0.0002455003561999819
                    CHANNELS 3 Yrotation Xrotation Zrotation
                    JOINT rightMiddleDistal
                    {
                      OFFSET -0.20675694929999955 -0.012273788999999091 0.00030209124000002766
                      CHANNELS 3 Yrotation Xrotation Zrotation
                      End Site
                      {
                        OFFSET -0.20675694929999955 -0.012273788999999091 0.00030209124000002766
                      }
                    }
                  }
                }
                JOINT rightLittleProximal
                {
                  OFFSET -0.5346811737299992 -0.011214256288399227 -0.24363941305000003
                  CHANNELS 3 Yrotation Xrotation Zrotation
                  JOINT rightLittleIntermediate
                  {
                    OFFSET -0.21757715980000092 -0.011771559690000988 0.01201554387
                    CHANNELS 3 Yrotation Xrotation Zrotation
                    JOINT rightLittleDistal
                    {
                      OFFSET -0.1475201849000004 -0.00822055339600003 0.006082065407000015
                      CHANNELS 3 Yrotation Xrotation Zrotation
                      End Site
                      {
                        OFFSET -0.1475201849000004 -0.00822055339600003 0.006082065407000015
                      }
                    }
                  }
                }
                JOINT rightRingProximal
                {
                  OFFSET -0.5800810755299999 0.027657985680600072 -0.12066365025000003
                  CHANNELS 3 Yrotation Xrotation Zrotation
                  JOINT rightRingIntermediate
                  {
                    OFFSET -0.26166445029999974 -0.013623118409999302 0.011164098990000045
                    CHANNELS 3 Yrotation Xrotation Zrotation
                    JOINT rightRingDistal
                    {
                      OFFSET -0.17666387530000027 -0.009072900100000503 0.005668185599999959
                      CHANNELS 3 Yrotation Xrotation Zrotation
                      End Site
                      {
                        OFFSET -0.17666387530000027 -0.009072900100000503 0.005668185599999959
                      }
                    }
                  }
                }
                JOINT rightThumbProximal
                {
                  OFFSET -0.10997596379000074 -0.09577489355940072 0.16989765924999997
                  CHANNELS 3 Yrotation Xrotation Zrotation
                  JOINT rightThumbIntermediate
                  {
                    OFFSET -0.31036620999999986 -0.08229339117999834 0.15440884469999996
                    CHANNELS 3 Yrotation Xrotation Zrotation
                    JOINT rightThumbDistal
                    {
                      OFFSET -0.21631306399999906 -0.08825326400000111 0.018656797720000014
                      CHANNELS 3 Yrotation Xrotation Zrotation
                      End Site
                      {
                        OFFSET -0.21631306399999906 -0.08825326400000111 0.018656797720000014
                      }
                    }
                  }
                }
              }
            }
          }
        }
      }
    }
  }
}
MOTION
Frames: 4
Frame Time: 0.03333333333333333
0.08062915503978729 -4.329841954638672 -2.4453859329223633 -0.4230373268855567 -26.930506292963003 -1.5952956630762483 8.95137885466821 -61.274496889446326 -2.747288395852478 86.85029530239692 88.32532111872109 92.16353888458683 -0.03793733307425554 3.035397175432959 1.0880866008610814 0.02214646171326964 -3.583518451090193 -0.9719147383306541 -19.546317893143783 -59.53414183870056 4.501299771125207 -142.02173623882265 87.75615190958857 -144.56046808552168 0.5405131813086448 -2.994978003033325 -7.426641863024837 0.000002502865084654057 -4.096749252931635 -0.0000014574085357534322 0.26002751873375884 32.87009694299167 1.4814573898902028 -0.20120597865736742 2.6423649457485836 2.605172543310313 0 0 0 5.592015479838354 -0.03805865395243846 -5.216229961246805 -41.53232723949749 19.085557539975003 -67.65818262606365 -78.43845978035877 0.5918421476342003 0.7251573978213659 -6.381556170957164 26.378702445998652 31.003740179307083 0.15846070927043113 0.0020250199800472928 -1.4727558507118874 0.2469289677577926 0.0049445108502476735 -2.2955856387916023 0.12348148504341167 0.00124456925214421 -1.1477902518264123 0.1567365905584919 0.0019835654758732775 -1.456748644876929 0.24864901495406014 0.005019472843682611 -2.311578612564501 0.12348966257514173 0.0012434562823235961 -1.1477946265383054 4.218055038425376 0.09008729075425963 -1.011500854138096 -3.8136400901514107 -0.009303477248830416 -2.75307843277176 0.12348618078757048 0.001248652503815891 -1.1477874776188635 0.15846070927043113 0.002025014977467331 -1.4727558507118874 0.2469289677577926 0.004944510433366009 -2.2955856387916023 0.1234814717032294 0.0012445691479237944 -1.1477902518264123 -2.913678121642804 9.099093645951482 -8.209315488497005 13.449744428068133 4.725186320249612 3.943330035808598 4.303842588308061 -0.08739734692298812 3.690832101826707 -0.01214721279108228 13.680723147846697 -1.9809753705166804 1.22917067928549 -26.570157779405033 -1.7711830472680974 0 0 0 0 0 0 0 0 0 1.4332397962314933 1.101756599679951 5.1252247019574595 16.68291958229677 15.087045622656637 68.72307241638151 86.26430158522504 0.6918690332648846 -0.7385047832371308 0.7567248458061893 30.182325805316903 -16.823417987855976 -0.3472413902353024 0.009687507808489565 3.1940649565011183 -0.21509920757758783 0.0037149813302102533 1.9776945193469062 -0.10755458794134987 0.0009259003230315453 0.9888658428005054 -0.34724141691523874 0.009687541992786437 3.1940649565011183 -0.21509923425782587 0.0037149817470919174 1.9776945193469062 -0.10755458794134987 0.0009259002188111295 0.9888658428005054 -0.3472470197018561 0.00968614377166805 3.194061972935354 -0.2150896026918779 0.0037132454349610047 1.9776975057747797 -0.1075609912325814 0.000926061760455644 0.9888637086842321 -0.3472413902353024 0.009687491966986135 3.194065169612958 -0.21509923425782587 0.0037149817470919174 1.9776945193469062 -0.10755458794134987 0.0009259002188111295 0.9888658428005054 2.1329244347814624 11.818201153228769 7.483088409446533 -11.061210790327925 22.80685657665806 4.518402185370775 -1.5900280138879823 7.8149283960859375 0.9236295227874587
0.08045442402362823 -4.327999455859375 -2.4428951740264893 -0.41179545211583707 -26.91385065487674 -1.623343706062423 9.229797585123759 -61.42229510540016 -3.1287192719553514 87.65663168772723 88.24810521760307 93.27325887964236 -0.02946112006207877 3.8747218876763334 0.8431383723005053 0.02694031926339403 -4.339714963160598 -0.8759848133335728 -19.595898562298473 -59.674953314321954 4.591952046566788 -138.5366565499868 87.59035278455616 -141.048585251618 0.5103274943086993 -2.329233789667414 -7.554124155868763 -0.0000017048021213551005 -4.447334781325957 0.000006536238313761964 0.2882006633757754 32.87368734417625 1.5927812200091302 -0.19711187286895537 2.4567515253563 2.338716634068002 0 0 0 5.494184691867518 -0.04214108703450465 -4.975764553188455 -41.56176290823997 19.143900766828512 -67.77875537603738 -78.44038996468221 0.5918527670104772 0.7251268228695682 -6.356505794823113 26.267593696778977 31.00476055753683 0.15846070927043113 0.0020250199800472928 -1.4727558507118874 0.2469289677577926 0.0049445108502476735 -2.2955856387916023 0.12348148504341167 0.00124456925214421 -1.1477902518264123 0.1567365905584919 0.0019835654758732775 -1.456748644876929 0.24864901495406014 0.005019472843682611 -2.311578612564501 0.12348966257514173 0.0012434562823235961 -1.1477946265383054 4.218055038425376 0.09008729075425963 -1.011500854138096 -3.8136400901514107 -0.009303477248830416 -2.75307843277176 0.12348618078757048 0.001248652503815891 -1.1477874776188635 0.15846070927043113 0.002025014977467331 -1.4727558507118874 0.2469289677577926 0.004944510433366009 -2.2955856387916023 0.1234814717032294 0.0012445691479237944 -1.1477902518264123 -2.913678121642804 9.099093645951482 -8.209315488497005 13.449744428068133 4.725186320249612 3.943330035808598 4.303842588308061 -0.08739734692298812 3.690832101826707 -0.013568437163289954 13.731446510947151 -1.91005202264192 1.2667314674171282 -26.419193121944183 -1.8582378884333908 0 0 0 0 0 0 0 0 0 1.37793197727353 1.097120502326848 5.457918642407263 16.731056501305595 15.290084283135686 68.54667246411545 86.19019366383841 0.6909088415315499 -0.7384687490347429 0.8872277358571369 30.139549117021154 -16.71564713378548 -0.3472413902353024 0.009687507808489565 3.1940649565011183 -0.21509920757758783 0.0037149813302102533 1.9776945193469062 -0.10755458794134987 0.0009259003230315453 0.9888658428005054 -0.34724141691523874 0.009687541992786437 3.1940649565011183 -0.21509923425782587 0.0037149817470919174 1.9776945193469062 -0.10755458794134987 0.0009259002188111295 0.9888658428005054 -0.3472470197018561 0.00968614377166805 3.194061972935354 -0.2150896026918779 0.0037132454349610047 1.9776975057747797 -0.1075609912325814 0.000926061760455644 0.9888637086842321 -0.3472413902353024 0.009687491966986135 3.194065169612958 -0.21509923425782587 0.0037149817470919174 1.9776945193469062 -0.10755458794134987 0.0009259002188111295 0.9888658428005054 2.131969482615103 11.816923290094577 7.481437009596812 -11.061210790327925 22.80685657665806 4.518402185370775 -1.5900280138879823 7.8149283960859375 0.9236295227874587
0.08033252507448196 -4.324258191516114 -2.439805507659912 -0.3738869470265558 -26.896418203073864 -1.6727714495874597 9.688950164926204 -61.76231023597414 -3.7995643199359415 88.21961143982284 88.13365517777991 94.3590531769261 -0.019100102636779644 5.945342311168845 0.32980784150531406 0.029037446578596176 -6.163685674037868 -0.6331891601854667 -19.659086097271484 -59.98397847468719 4.742721681503949 -132.89622114060734 87.26097429047213 -135.3726073093751 0.43290223255018595 -0.7790973704369757 -7.757373762922937 -0.00000496138868396969 -5.111979211897782 0.0000035147000559807353 0.32272867797990806 32.92689356554614 1.775428143732885 -0.19400978676440356 2.1766002014828665 1.9029476958127631 0 0 0 5.362592157509194 -0.051666656148697754 -4.622241971073408 -41.63402207757035 19.247170651087867 -67.98475981835867 -78.38336701458016 0.591127287557292 0.7249991641906395 -6.260947518163046 26.063979002138655 31.026935211760616 0.15846070927043113 0.0020250199800472928 -1.4727558507118874 0.2469289677577926 0.0049445108502476735 -2.2955856387916023 0.12348148504341167 0.00124456925214421 -1.1477902518264123 0.1567365905584919 0.0019835654758732775 -1.456748644876929 0.24864901495406014 0.005019472843682611 -2.311578612564501 0.12348966257514173 0.0012434562823235961 -1.1477946265383054 4.218055038425376 0.09008729075425963 -1.011500854138096 -3.8136400901514107 -0.009303477248830416 -2.75307843277176 0.12348618078757048 0.001248652503815891 -1.1477874776188635 0.15846070927043113 0.002025014977467331 -1.4727558507118874 0.2469289677577926 0.004944510433366009 -2.2955856387916023 0.1234814717032294 0.0012445691479237944 -1.1477902518264123 -2.913678121642804 9.099093645951482 -8.209315488497005 13.449744428068133 4.725186320249612 3.943330035808598 4.303842588308061 -0.08739734692298812 3.690832101826707 -0.01594306172413025 13.807111240535798 -1.8009440685116171 1.319605884411114 -26.202692658985555 -1.9869023618256516 0 0 0 0 0 0 0 0 0 1.2944326454002602 1.0927519053888133 6.006857432570809 16.80197062167289 15.590960706669371 68.25848780023978 86.00687650244234 0.6885657567880539 -0.7383160626523372 1.001167612760015 30.06677655239781 -16.59864636799313 -0.3472413902353024 0.009687507808489565 3.1940649565011183 -0.21509920757758783 0.0037149813302102533 1.9776945193469062 -0.10755458794134987 0.0009259003230315453 0.9888658428005054 -0.34724141691523874 0.009687541992786437 3.1940649565011183 -0.21509923425782587 0.0037149817470919174 1.9776945193469062 -0.10755458794134987 0.0009259002188111295 0.9888658428005054 -0.3472470197018561 0.00968614377166805 3.194061972935354 -0.2150896026918779 0.0037132454349610047 1.9776975057747797 -0.1075609912325814 0.000926061760455644 0.9888637086842321 -0.3472413902353024 0.009687491966986135 3.194065169612958 -0.21509923425782587 0.0037149817470919174 1.9776945193469062 -0.10755458794134987 0.0009259002188111295 0.9888658428005054 2.131996286028105 11.81692067331612 7.481448706729403 -11.061210790327925 22.80685657665806 4.518402185370775 -1.5900280138879823 7.8149283960859375 0.9236295227874587
0.08136588335037231 -4.322392327716065 -2.447782516479492 -0.2672187816498702 -26.98480693289284 -1.6667432960322321 9.667324570166016 -61.97120372520363 -3.8977208269056627 85.07361849635028 88.21655243592637 91.22346199873704 -0.016317500047511712 7.836856899788086 -0.001035050871048841 0.016869219370013348 -7.707669778971403 -0.3221231211838572 -19.605521642664325 -60.16296518951021 4.704874055052597 -130.52432209014523 87.17326052591667 -133.06609039115193 0.3531818548006138 0.4965312990344468 -7.782323651640275 0.0046259429274196715 -5.591421342126203 0.5807637443204614 0.3364416042123032 33.003527540823264 1.8998167628740517 -0.1968266844127236 1.9520181357578787 1.6270233896060826 0 0 0 5.2949583971836685 -0.055100411847883474 -4.4189192587081205 -41.71055393592281 19.371837068135687 -68.0977282038312 -78.38492662708077 0.5911462316683247 0.7250158123299452 -6.178261708950884 25.867835640026616 31.03913301295057 0.15846070927043113 0.0020250199800472928 -1.4727558507118874 0.2469289677577926 0.0049445108502476735 -2.2955856387916023 0.12348148504341167 0.00124456925214421 -1.1477902518264123 0.1567365905584919 0.0019835654758732775 -1.456748644876929 0.24864901495406014 0.005019472843682611 -2.311578612564501 0.12348966257514173 0.0012434562823235961 -1.1477946265383054 4.218055038425376 0.09008729075425963 -1.011500854138096 -3.8136400901514107 -0.009303477248830416 -2.75307843277176 0.12348618078757048 0.001248652503815891 -1.1477874776188635 0.15846070927043113 0.002025014977467331 -1.4727558507118874 0.2469289677577926 0.004944510433366009 -2.2955856387916023 0.1234814717032294 0.0012445691479237944 -1.1477902518264123 -2.913678121642804 9.099093645951482 -8.209315488497005 13.449744428068133 4.725186320249612 3.943330035808598 4.303842588308061 -0.08739734692298812 3.690832101826707 -0.01181460454661975 13.86527083992746 -1.741607547109403 1.3944189846235135 -26.037940156178678 -2.090681884717799 0 0 0 0 0 0 0 0 0 1.2471097019384263 1.0911867607757433 6.321733576340973 16.865342207867144 15.792344480827893 68.12774632447908 85.92189095386536 0.6875055602824083 -0.7382443305035723 1.0534305403543494 30.016591319558657 -16.510243050584577 -0.3472413902353024 0.009687507808489565 3.1940649565011183 -0.21509920757758783 0.0037149813302102533 1.9776945193469062 -0.10755458794134987 0.0009259003230315453 0.9888658428005054 -0.34724141691523874 0.009687541992786437 3.1940649565011183 -0.21509923425782587 0.0037149817470919174 1.9776945193469062 -0.10755458794134987 0.0009259002188111295 0.9888658428005054 -0.3472470197018561 0.00968614377166805 3.194061972935354 -0.2150896026918779 0.0037132454349610047 1.9776975057747797 -0.1075609912325814 0.000926061760455644 0.9888637086842321 -0.3472413902353024 0.009687491966986135 3.194065169612958 -0.21509923425782587 0.0037149817470919174 1.9776945193469062 -0.10755458794134987 0.0009259002188111295 0.9888658428005054 2.1322455561461653 11.817299234192774 7.4819499107189165 -11.061210790327925 22.80685657665806 4.518402185370775 -1.5900280138879823 7.8149283960859375 0.9236295227874587
